# xmcd CD database file
#
# Track frame offsets:
#	150
#	33005
#	55364
#	80233
#	93614
#	115991
#	149281
#	171938
#	206246
#	223582
#	236054
#
# Disc length: 3339 seconds
#
# Revision: 0
# Processed by: cddbd v1.5.2PL0 Copyright (c) Steve Scherf et al.
# Submitted via: CDex 1.51
#
DISCID=a60d090b
DTITLE=Joe Vitale - The Secret to Attracting Money [CD2]
DYEAR=2009
DGENRE=New Age
TTITLE0=A powerful success story to being this session
TTITLE1=Seven power principles for a new mindset
TTITLE2=The power of forgiveness
TTITLE3=Take action!
TTITLE4=A five-step formula for abundance in any economic climate
TTITLE5=Getting clear, Nevillizing your goal, letting go
TTITLE6=Five ways to guard yourself against negativity
TTITLE7=Attracting money faster and easier through karmic marketing
TTITLE8=the power of karmic marketing on a whole new level
TTITLE9=Getting rid of the scarcity mentality
TTITLE10=Discovering your life mission
EXTD=YEAR: 2009
EXTT0=
EXTT1=
EXTT2=
EXTT3=
EXTT4=
EXTT5=
EXTT6=
EXTT7=
EXTT8=
EXTT9=
EXTT10=
PLAYORDER=
